<svg width="18" height="18" viewBox="0 0 18 18" fill="none" xmlns="http://www.w3.org/2000/svg">
<rect x="0.543103" y="0.543103" width="16.9138" height="16.9138" rx="8.4569" fill="url(#paint0_linear_3674_4700)"/>
<rect x="0.543103" y="0.543103" width="16.9138" height="16.9138" rx="8.4569" stroke="#A7682D" stroke-width="1.08621"/>
<mask id="path-2-outside-1_3674_4700" maskUnits="userSpaceOnUse" x="5" y="3" width="8" height="11" fill="black">
<rect fill="white" x="5" y="3" width="8" height="11"/>
<path d="M8.90767 13.1193C8.29403 13.1193 7.74858 13.0142 7.27131 12.804C6.79688 12.5937 6.42188 12.3011 6.14631 11.9261C5.87074 11.5511 5.72443 11.1179 5.70739 10.6264H7.30966C7.32386 10.8622 7.40199 11.0682 7.54403 11.2443C7.68608 11.4176 7.875 11.5526 8.1108 11.6491C8.34659 11.7457 8.6108 11.794 8.90341 11.794C9.21591 11.794 9.4929 11.7401 9.73438 11.6321C9.97585 11.5213 10.1648 11.3679 10.3011 11.1719C10.4375 10.9759 10.5043 10.75 10.5014 10.4943C10.5043 10.2301 10.4361 9.99716 10.2969 9.79545C10.1577 9.59375 9.95597 9.43608 9.69176 9.32244C9.4304 9.20881 9.11506 9.15199 8.74574 9.15199H7.97443V7.93324H8.74574C9.04972 7.93324 9.31534 7.88068 9.54261 7.77557C9.77273 7.67045 9.95313 7.52273 10.0838 7.33239C10.2145 7.1392 10.2784 6.91619 10.2756 6.66335C10.2784 6.41619 10.223 6.2017 10.1094 6.01989C9.99858 5.83523 9.84091 5.69176 9.63636 5.58949C9.43466 5.48722 9.19744 5.43608 8.92472 5.43608C8.65767 5.43608 8.41051 5.48437 8.18324 5.58097C7.95597 5.67756 7.77273 5.81534 7.63352 5.99432C7.49432 6.17045 7.42045 6.38068 7.41193 6.625H5.89062C5.90199 6.13636 6.04261 5.70739 6.3125 5.33807C6.58523 4.96591 6.94886 4.67614 7.40341 4.46875C7.85795 4.25852 8.3679 4.15341 8.93324 4.15341C9.51563 4.15341 10.0213 4.26278 10.4503 4.48153C10.8821 4.69744 11.2159 4.98864 11.4517 5.35511C11.6875 5.72159 11.8054 6.12642 11.8054 6.5696C11.8082 7.06108 11.6634 7.47301 11.3707 7.8054C11.081 8.13778 10.7003 8.35511 10.2287 8.45739V8.52557C10.8423 8.6108 11.3125 8.83807 11.6392 9.20739C11.9688 9.57386 12.1321 10.0298 12.1293 10.5753C12.1293 11.0639 11.9901 11.5014 11.7116 11.8878C11.4361 12.2713 11.0554 12.5724 10.5696 12.7912C10.0866 13.0099 9.53267 13.1193 8.90767 13.1193Z"/>
</mask>
<path d="M8.90767 13.1193C8.29403 13.1193 7.74858 13.0142 7.27131 12.804C6.79688 12.5937 6.42188 12.3011 6.14631 11.9261C5.87074 11.5511 5.72443 11.1179 5.70739 10.6264H7.30966C7.32386 10.8622 7.40199 11.0682 7.54403 11.2443C7.68608 11.4176 7.875 11.5526 8.1108 11.6491C8.34659 11.7457 8.6108 11.794 8.90341 11.794C9.21591 11.794 9.4929 11.7401 9.73438 11.6321C9.97585 11.5213 10.1648 11.3679 10.3011 11.1719C10.4375 10.9759 10.5043 10.75 10.5014 10.4943C10.5043 10.2301 10.4361 9.99716 10.2969 9.79545C10.1577 9.59375 9.95597 9.43608 9.69176 9.32244C9.4304 9.20881 9.11506 9.15199 8.74574 9.15199H7.97443V7.93324H8.74574C9.04972 7.93324 9.31534 7.88068 9.54261 7.77557C9.77273 7.67045 9.95313 7.52273 10.0838 7.33239C10.2145 7.1392 10.2784 6.91619 10.2756 6.66335C10.2784 6.41619 10.223 6.2017 10.1094 6.01989C9.99858 5.83523 9.84091 5.69176 9.63636 5.58949C9.43466 5.48722 9.19744 5.43608 8.92472 5.43608C8.65767 5.43608 8.41051 5.48437 8.18324 5.58097C7.95597 5.67756 7.77273 5.81534 7.63352 5.99432C7.49432 6.17045 7.42045 6.38068 7.41193 6.625H5.89062C5.90199 6.13636 6.04261 5.70739 6.3125 5.33807C6.58523 4.96591 6.94886 4.67614 7.40341 4.46875C7.85795 4.25852 8.3679 4.15341 8.93324 4.15341C9.51563 4.15341 10.0213 4.26278 10.4503 4.48153C10.8821 4.69744 11.2159 4.98864 11.4517 5.35511C11.6875 5.72159 11.8054 6.12642 11.8054 6.5696C11.8082 7.06108 11.6634 7.47301 11.3707 7.8054C11.081 8.13778 10.7003 8.35511 10.2287 8.45739V8.52557C10.8423 8.6108 11.3125 8.83807 11.6392 9.20739C11.9688 9.57386 12.1321 10.0298 12.1293 10.5753C12.1293 11.0639 11.9901 11.5014 11.7116 11.8878C11.4361 12.2713 11.0554 12.5724 10.5696 12.7912C10.0866 13.0099 9.53267 13.1193 8.90767 13.1193Z" fill="#713D0D"/>
<path d="M7.27131 12.804L7.06875 13.2611L7.06976 13.2616L7.27131 12.804ZM6.14631 11.9261L6.54922 11.6301L6.14631 11.9261ZM5.70739 10.6264V10.1264H5.18974L5.20769 10.6438L5.70739 10.6264ZM7.30966 10.6264L7.80875 10.5964L7.78044 10.1264H7.30966V10.6264ZM7.54403 11.2443L7.15482 11.5582L7.15734 11.5613L7.54403 11.2443ZM8.1108 11.6491L7.92126 12.1118H7.92126L8.1108 11.6491ZM9.73438 11.6321L9.93845 12.0886L9.94289 12.0866L9.73438 11.6321ZM10.3011 11.1719L9.89068 10.8863H9.89068L10.3011 11.1719ZM10.5014 10.4943L10.0013 10.4889L10.0015 10.4999L10.5014 10.4943ZM10.2969 9.79545L9.88536 10.0795L10.2969 9.79545ZM9.69176 9.32244L9.4924 9.78098L9.49421 9.78176L9.69176 9.32244ZM7.97443 9.15199H7.47443V9.65199H7.97443V9.15199ZM7.97443 7.93324V7.43324H7.47443V7.93324H7.97443ZM9.54261 7.77557L9.33486 7.32077L9.33273 7.32175L9.54261 7.77557ZM10.0838 7.33239L10.496 7.6154L10.4979 7.61254L10.0838 7.33239ZM10.2756 6.66335L9.77547 6.6576L9.7756 6.66897L10.2756 6.66335ZM10.1094 6.01989L9.68056 6.27718L9.68538 6.28489L10.1094 6.01989ZM9.63636 5.58949L9.41024 6.03545L9.41276 6.0367L9.63636 5.58949ZM8.18324 5.58097L8.37881 6.04113L8.18324 5.58097ZM7.63352 5.99432L8.02581 6.30436L8.0282 6.30129L7.63352 5.99432ZM7.41193 6.625V7.125H7.89479L7.91163 6.64243L7.41193 6.625ZM5.89062 6.625L5.39076 6.61338L5.37886 7.125H5.89062V6.625ZM6.3125 5.33807L5.9092 5.04252L5.9088 5.04306L6.3125 5.33807ZM7.40341 4.46875L7.61096 4.92365L7.6133 4.92256L7.40341 4.46875ZM10.4503 4.48153L10.2231 4.92698L10.2267 4.92875L10.4503 4.48153ZM11.4517 5.35511L11.0312 5.62566L11.4517 5.35511ZM11.8054 6.5696H11.3054L11.3054 6.57249L11.8054 6.5696ZM11.3707 7.8054L10.9954 7.47501L10.9939 7.47683L11.3707 7.8054ZM10.2287 8.45739L10.1227 7.96874L9.72869 8.0542V8.45739H10.2287ZM10.2287 8.52557H9.72869V8.96092L10.1599 9.02081L10.2287 8.52557ZM11.6392 9.20739L11.2647 9.53868L11.2674 9.54171L11.6392 9.20739ZM12.1293 10.5753L11.6293 10.5727V10.5753H12.1293ZM11.7116 11.8878L11.306 11.5955L11.3056 11.596L11.7116 11.8878ZM10.5696 12.7912L10.3643 12.3353L10.3633 12.3357L10.5696 12.7912ZM8.90767 12.6193C8.35133 12.6193 7.8764 12.5242 7.47286 12.3464L7.06976 13.2616C7.62075 13.5043 8.23674 13.6193 8.90767 13.6193V12.6193ZM7.47387 12.3468C7.06974 12.1678 6.76743 11.927 6.54922 11.6301L5.7434 12.2222C6.07632 12.6753 6.52401 13.0197 7.06875 13.2611L7.47387 12.3468ZM6.54922 11.6301C6.33669 11.3408 6.22085 11.0061 6.20709 10.6091L5.20769 10.6438C5.22801 11.2297 5.40479 11.7614 5.7434 12.2222L6.54922 11.6301ZM5.70739 11.1264H7.30966V10.1264H5.70739V11.1264ZM6.81056 10.6565C6.83072 10.9912 6.94457 11.2975 7.15483 11.5582L7.93324 10.9304C7.85941 10.8389 7.817 10.7333 7.80875 10.5964L6.81056 10.6565ZM7.15734 11.5613C7.35884 11.8071 7.61933 11.9881 7.92126 12.1118L8.30033 11.1865C8.13067 11.117 8.01332 11.0281 7.93073 10.9274L7.15734 11.5613ZM7.92126 12.1118C8.22546 12.2364 8.55535 12.294 8.90341 12.294V11.294C8.66624 11.294 8.46772 11.255 8.30033 11.1865L7.92126 12.1118ZM8.90341 12.294C9.27364 12.294 9.62218 12.23 9.93844 12.0886L9.53031 11.1756C9.36362 11.2502 9.15818 11.294 8.90341 11.294V12.294ZM9.94289 12.0866C10.2562 11.9428 10.5186 11.7348 10.7116 11.4574L9.89068 10.8863C9.81092 11.001 9.69553 11.0998 9.52586 11.1777L9.94289 12.0866ZM10.7116 11.4574C10.9116 11.1699 11.0053 10.8406 11.0014 10.4888L10.0015 10.4999C10.0032 10.6594 9.96337 10.7819 9.89068 10.8863L10.7116 11.4574ZM11.0014 10.4997C11.0053 10.1407 10.9109 9.8049 10.7084 9.51145L9.88536 10.0795C9.96125 10.1894 10.0033 10.3195 10.0014 10.4889L11.0014 10.4997ZM10.7084 9.51145C10.5071 9.21976 10.2247 9.00737 9.88932 8.86313L9.49421 9.78176C9.68725 9.86479 9.80826 9.96774 9.88536 10.0795L10.7084 9.51145ZM9.89112 8.86391C9.5512 8.71611 9.16423 8.65199 8.74574 8.65199V9.65199C9.06588 9.65199 9.30959 9.7015 9.4924 9.78098L9.89112 8.86391ZM8.74574 8.65199H7.97443V9.65199H8.74574V8.65199ZM8.47443 9.15199V7.93324H7.47443V9.15199H8.47443ZM7.97443 8.43324H8.74574V7.43324H7.97443V8.43324ZM8.74574 8.43324C9.10699 8.43324 9.44691 8.37072 9.7525 8.22938L9.33273 7.32175C9.18378 7.39064 8.99245 7.43324 8.74574 7.43324V8.43324ZM9.75036 8.23037C10.0548 8.0913 10.3092 7.88753 10.496 7.61539L9.67161 7.04938C9.59708 7.15793 9.49066 7.24961 9.33487 7.32077L9.75036 8.23037ZM10.4979 7.61254C10.6905 7.3279 10.7794 7.00336 10.7755 6.65773L9.7756 6.66897C9.7774 6.82903 9.73848 6.95051 9.66967 7.05223L10.4979 7.61254ZM10.7755 6.6691C10.7793 6.34124 10.7051 6.02964 10.5334 5.75489L9.68538 6.28489C9.74093 6.37376 9.77751 6.49114 9.7756 6.65761L10.7755 6.6691ZM10.5381 5.76264C10.3753 5.49131 10.1441 5.28432 9.85997 5.14227L9.41276 6.0367C9.53776 6.09921 9.62184 6.17915 9.68063 6.27713L10.5381 5.76264ZM9.86248 5.14354C9.57769 4.99914 9.26001 4.93608 8.92472 4.93608V5.93608C9.13488 5.93608 9.29163 5.97529 9.41025 6.03544L9.86248 5.14354ZM8.92472 4.93608C8.59599 4.93608 8.28168 4.99584 7.98767 5.1208L8.37881 6.04113C8.53934 5.9729 8.71935 5.93608 8.92472 5.93608V4.93608ZM7.98767 5.1208C7.68924 5.24763 7.43488 5.4353 7.23885 5.68735L8.0282 6.30129C8.11057 6.19538 8.22269 6.10748 8.37881 6.04113L7.98767 5.1208ZM7.24124 5.68429C7.03003 5.95154 6.92412 6.26676 6.91224 6.60757L7.91163 6.64243C7.91679 6.4946 7.95861 6.38936 8.0258 6.30435L7.24124 5.68429ZM7.41193 6.125H5.89062V7.125H7.41193V6.125ZM6.39049 6.63662C6.39965 6.24267 6.51076 5.9142 6.7162 5.63308L5.9088 5.04306C5.57447 5.50057 5.40433 6.03005 5.39076 6.61338L6.39049 6.63662ZM6.7158 5.63362C6.93383 5.33609 7.22758 5.09855 7.61095 4.92364L7.19587 4.01386C6.67015 4.25372 6.23662 4.59573 5.9092 5.04252L6.7158 5.63362ZM7.6133 4.92256C7.99405 4.74646 8.43101 4.65341 8.93324 4.65341V3.65341C8.30478 3.65341 7.72186 3.77058 7.19352 4.01494L7.6133 4.92256ZM8.93324 4.65341C9.45302 4.65341 9.87776 4.75084 10.2231 4.92696L10.6774 4.0361C10.1649 3.77473 9.57823 3.65341 8.93324 3.65341V4.65341ZM10.2267 4.92875C10.5871 5.10896 10.8491 5.34263 11.0312 5.62566L11.8722 5.08457C11.5827 4.63465 11.1771 4.28593 10.6739 4.03432L10.2267 4.92875ZM11.0312 5.62566C11.2142 5.91001 11.3054 6.22064 11.3054 6.5696H12.3054C12.3054 6.0322 12.1608 5.53317 11.8722 5.08457L11.0312 5.62566ZM11.3054 6.57249C11.3076 6.95585 11.1979 7.245 10.9954 7.47501L11.746 8.13578C12.1288 7.70102 12.3089 7.16631 12.3054 6.56671L11.3054 6.57249ZM10.9939 7.47683C10.7815 7.72037 10.4996 7.88701 10.1227 7.96874L10.3347 8.94603C10.901 8.82322 11.3804 8.5552 11.7476 8.13397L10.9939 7.47683ZM9.72869 8.45739V8.52557H10.7287V8.45739H9.72869ZM10.1599 9.02081C10.6866 9.09396 11.0357 9.27983 11.2647 9.53867L12.0137 8.8761C11.5893 8.39631 10.9981 8.12763 10.2975 8.03032L10.1599 9.02081ZM11.2674 9.54171C11.5047 9.80558 11.6315 10.1372 11.6293 10.5727L12.6293 10.5779C12.6327 9.92244 12.4328 9.34214 12.011 8.87306L11.2674 9.54171ZM11.6293 10.5753C11.6293 10.9619 11.5214 11.2966 11.306 11.5955L12.1173 12.1801C12.4587 11.7063 12.6293 11.1659 12.6293 10.5753H11.6293ZM11.3056 11.596C11.0877 11.8993 10.7804 12.1479 10.3643 12.3353L10.7749 13.2471C11.3304 12.997 11.7845 12.6433 12.1177 12.1795L11.3056 11.596ZM10.3633 12.3357C9.95572 12.5203 9.4741 12.6193 8.90767 12.6193V13.6193C9.59124 13.6193 10.2176 13.4995 10.7759 13.2467L10.3633 12.3357Z" fill="#A7682D" mask="url(#path-2-outside-1_3674_4700)"/>
<defs>
<linearGradient id="paint0_linear_3674_4700" x1="1.22727" y1="4.36364" x2="16.5" y2="13.7727" gradientUnits="userSpaceOnUse">
<stop stop-color="#A7682D"/>
<stop offset="0.34375" stop-color="#CF8F53"/>
<stop offset="0.479167" stop-color="#F3B174"/>
<stop offset="0.619792" stop-color="#D39256"/>
<stop offset="1" stop-color="#AF7035"/>
</linearGradient>
</defs>
</svg>
