<svg width="65" height="64" viewBox="0 0 65 64" fill="none" xmlns="http://www.w3.org/2000/svg">
<path d="M18.7992 4.2169C19.7916 3.22451 21.1375 2.66699 22.541 2.66699L42.4577 2.66699C43.8612 2.66699 45.2071 3.22451 46.1995 4.21689L60.2828 18.3002C61.2752 19.2925 61.8327 20.6385 61.8327 22.042V41.9587C61.8327 43.3621 61.2752 44.7081 60.2828 45.7005L46.1995 59.7838C45.2071 60.7761 43.8612 61.3337 42.4577 61.3337H22.541C21.1375 61.3337 19.7916 60.7761 18.7992 59.7838L4.71592 45.7005C3.72353 44.7081 3.16602 43.3621 3.16602 41.9587L3.16602 22.042C3.16602 20.6385 3.72353 19.2925 4.71592 18.3002L18.7992 4.2169Z" fill="#FF8888"/>
<path fill-rule="evenodd" clip-rule="evenodd" d="M34.3063 36.0003L34.3008 18.667L30.3008 18.6683L30.3063 36.0016L34.3063 36.0003ZM34.3073 45.3342L34.3073 40.0009H30.3073L30.3073 45.3342H34.3073Z" fill="#141414"/>
</svg>
