<svg width="18" height="18" viewBox="0 0 18 18" fill="none" xmlns="http://www.w3.org/2000/svg">
<rect x="0.375" y="0.375" width="17.25" height="17.25" rx="8.625" fill="url(#paint0_linear_3674_9444)"/>
<rect x="0.375" y="0.375" width="17.25" height="17.25" rx="8.625" stroke="#BB9A45" stroke-width="0.75"/>
<mask id="path-2-outside-1_3674_9444" maskUnits="userSpaceOnUse" x="6" y="3" width="5" height="11" fill="black">
<rect fill="white" x="6" y="3" width="5" height="11"/>
<path d="M10.3253 4.27273V13H8.74432V5.81108H8.69318L6.65199 7.11506V5.66619L8.82102 4.27273H10.3253Z"/>
</mask>
<path d="M10.3253 4.27273V13H8.74432V5.81108H8.69318L6.65199 7.11506V5.66619L8.82102 4.27273H10.3253Z" fill="#856600"/>
<path d="M10.3253 4.27273H10.8253V3.77273H10.3253V4.27273ZM10.3253 13V13.5H10.8253V13H10.3253ZM8.74432 13H8.24432V13.5H8.74432V13ZM8.74432 5.81108H9.24432V5.31108H8.74432V5.81108ZM8.69318 5.81108V5.31108H8.54711L8.424 5.38972L8.69318 5.81108ZM6.65199 7.11506H6.15199V8.02779L6.92117 7.53642L6.65199 7.11506ZM6.65199 5.66619L6.38174 5.24552L6.15199 5.39312V5.66619H6.65199ZM8.82102 4.27273V3.77273H8.67425L8.55077 3.85206L8.82102 4.27273ZM9.82528 4.27273V13H10.8253V4.27273H9.82528ZM10.3253 12.5H8.74432V13.5H10.3253V12.5ZM9.24432 13V5.81108H8.24432V13H9.24432ZM8.74432 5.31108H8.69318V6.31108H8.74432V5.31108ZM8.424 5.38972L6.38281 6.6937L6.92117 7.53642L8.96236 6.23244L8.424 5.38972ZM7.15199 7.11506V5.66619H6.15199V7.11506H7.15199ZM6.92224 6.08686L9.09128 4.6934L8.55077 3.85206L6.38174 5.24552L6.92224 6.08686ZM8.82102 4.77273H10.3253V3.77273H8.82102V4.77273Z" fill="#BB9A45" mask="url(#path-2-outside-1_3674_9444)"/>
<defs>
<linearGradient id="paint0_linear_3674_9444" x1="1.22727" y1="4.36364" x2="16.5" y2="13.7727" gradientUnits="userSpaceOnUse">
<stop stop-color="#D5B345"/>
<stop offset="0.307292" stop-color="#E8CD76"/>
<stop offset="0.479167" stop-color="#FBE7A5"/>
<stop offset="0.614583" stop-color="#E7CC74"/>
<stop offset="1" stop-color="#D4B345"/>
</linearGradient>
</defs>
</svg>
