<svg width="20" height="20" viewBox="0 0 20 20" fill="none" xmlns="http://www.w3.org/2000/svg">
<path d="M8.81475 1.29272C9.47488 0.679771 10.5225 0.679771 11.1826 1.29272L11.9262 1.98311C12.3037 2.33362 12.8286 2.49732 13.3486 2.42672L14.3729 2.28765C15.2824 2.16419 16.1299 2.75524 16.2886 3.62355L16.4674 4.60156C16.5581 5.0981 16.8825 5.52666 17.3465 5.76293L18.2603 6.22832C19.0717 6.6415 19.3954 7.59783 18.992 8.38984L18.5377 9.28191C18.3071 9.73481 18.3071 10.2645 18.5377 10.7174L18.992 11.6095C19.3954 12.4015 19.0717 13.3578 18.2603 13.771L17.3465 14.2364C16.8825 14.4727 16.5581 14.9012 16.4674 15.3978L16.2886 16.3758C16.1299 17.2441 15.2824 17.8352 14.3729 17.7117L13.3486 17.5726C12.8286 17.502 12.3037 17.6657 11.9262 18.0162L11.1826 18.7066C10.5225 19.3196 9.47487 19.3196 8.81475 18.7066L8.07121 18.0162C7.69372 17.6657 7.16883 17.502 6.64878 17.5726L5.62446 17.7117C4.71504 17.8352 3.86747 17.2441 3.70878 16.3758L3.53004 15.3978C3.4393 14.9012 3.1149 14.4727 2.65093 14.2364L1.73708 13.771C0.92573 13.3578 0.601991 12.4015 1.00535 11.6095L1.45968 10.7174C1.69034 10.2645 1.69034 9.73481 1.45968 9.28191L1.00535 8.38983C0.601991 7.59783 0.925731 6.6415 1.73708 6.22832L2.65093 5.76293C3.1149 5.52666 3.4393 5.0981 3.53004 4.60156L3.70878 3.62355C3.86747 2.75524 4.71504 2.16419 5.62446 2.28765L6.64878 2.42672C7.16883 2.49732 7.69372 2.33362 8.07121 1.98311L8.81475 1.29272Z" fill="#68FFA5"/>
<path d="M6.66797 9.5539L9.18649 12.0837L13.3346 7.91699" stroke="#141414" stroke-width="1.5"/>
</svg>
