<svg width="375" height="253" viewBox="0 0 375 253" fill="none" xmlns="http://www.w3.org/2000/svg">
<g clip-path="url(#clip0_2413_30012)">
<rect width="375" height="253" fill="#141414"/>
<path opacity="0.24" fill-rule="evenodd" clip-rule="evenodd" d="M466 406C466 714.727 215.727 965 -93 965C-401.727 965 -652 714.727 -652 406C-652 97.2728 -401.727 -153 -93 -153C215.727 -153 466 97.2728 466 406ZM467 406C467 715.279 216.279 966 -93 966C-402.279 966 -653 715.279 -653 406C-653 96.7205 -402.279 -154 -93 -154C216.279 -154 467 96.7205 467 406ZM-93 925C193.636 925 426 692.636 426 406C426 119.364 193.636 -113 -93 -113C-379.636 -113 -612 119.364 -612 406C-612 692.636 -379.636 925 -93 925ZM-93 926C194.188 926 427 693.188 427 406C427 118.812 194.188 -114 -93 -114C-380.188 -114 -613 118.812 -613 406C-613 693.188 -380.188 926 -93 926ZM386 406C386 670.544 171.544 885 -93 885C-357.544 885 -572 670.544 -572 406C-572 141.456 -357.544 -73 -93 -73C171.544 -73 386 141.456 386 406ZM387 406C387 671.097 172.097 886 -93 886C-358.097 886 -573 671.097 -573 406C-573 140.903 -358.097 -74 -93 -74C172.097 -74 387 140.903 387 406ZM-93 845C149.453 845 346 648.453 346 406C346 163.547 149.453 -33 -93 -33C-335.453 -33 -532 163.547 -532 406C-532 648.453 -335.453 845 -93 845ZM-93 846C150.005 846 347 649.005 347 406C347 162.995 150.005 -34 -93 -34C-336.005 -34 -533 162.995 -533 406C-533 649.005 -336.005 846 -93 846ZM-93 805C127.362 805 306 626.362 306 406C306 185.638 127.362 7 -93 7C-313.362 7 -492 185.638 -492 406C-492 626.362 -313.362 805 -93 805ZM-93 806C127.914 806 307 626.914 307 406C307 185.086 127.914 6 -93 6C-313.914 6 -493 185.086 -493 406C-493 626.914 -313.914 806 -93 806Z" fill="white"/>
<rect width="253" height="375" transform="matrix(4.37114e-08 1 1 -4.37114e-08 0 0)" fill="url(#paint0_linear_2413_30012)"/>
</g>
<defs>
<linearGradient id="paint0_linear_2413_30012" x1="126" y1="238.674" x2="-137" y2="238.674" gradientUnits="userSpaceOnUse">
<stop stop-color="#141414"/>
<stop offset="1" stop-color="#141414" stop-opacity="0"/>
</linearGradient>
<clipPath id="clip0_2413_30012">
<rect width="375" height="253" fill="white"/>
</clipPath>
</defs>
</svg>
