<svg width="18" height="18" viewBox="0 0 18 18" fill="none" xmlns="http://www.w3.org/2000/svg">
<rect x="0.375" y="0.375" width="17.25" height="17.25" rx="8.625" fill="url(#paint0_linear_3674_4230)"/>
<rect x="0.375" y="0.375" width="17.25" height="17.25" rx="8.625" stroke="#9D9D9D" stroke-width="0.75"/>
<mask id="path-2-outside-1_3674_4230" maskUnits="userSpaceOnUse" x="5" y="3" width="8" height="11" fill="black">
<rect fill="white" x="5" y="3" width="8" height="11"/>
<path d="M5.77557 13V11.858L8.8054 8.88778C9.09517 8.59517 9.33665 8.33523 9.52983 8.10795C9.72301 7.88068 9.8679 7.66051 9.96449 7.44744C10.0611 7.23437 10.1094 7.0071 10.1094 6.76562C10.1094 6.49006 10.0469 6.25426 9.92188 6.05824C9.79688 5.85938 9.625 5.70597 9.40625 5.59801C9.1875 5.49006 8.93892 5.43608 8.66051 5.43608C8.37358 5.43608 8.12216 5.49574 7.90625 5.61506C7.69034 5.73153 7.52273 5.89773 7.40341 6.11364C7.28693 6.32955 7.22869 6.58665 7.22869 6.88494H5.72443C5.72443 6.33097 5.85085 5.84943 6.10369 5.44034C6.35653 5.03125 6.70455 4.71449 7.14773 4.49006C7.59375 4.26562 8.10511 4.15341 8.68182 4.15341C9.26705 4.15341 9.78125 4.26278 10.2244 4.48153C10.6676 4.70028 11.0114 5 11.2557 5.38068C11.5028 5.76136 11.6264 6.19602 11.6264 6.68466C11.6264 7.01136 11.5639 7.33239 11.4389 7.64773C11.3139 7.96307 11.0938 8.3125 10.7784 8.69602C10.4659 9.07955 10.027 9.54403 9.46165 10.0895L7.95739 11.6193V11.679H11.7585V13H5.77557Z"/>
</mask>
<path d="M5.77557 13V11.858L8.8054 8.88778C9.09517 8.59517 9.33665 8.33523 9.52983 8.10795C9.72301 7.88068 9.8679 7.66051 9.96449 7.44744C10.0611 7.23437 10.1094 7.0071 10.1094 6.76562C10.1094 6.49006 10.0469 6.25426 9.92188 6.05824C9.79688 5.85938 9.625 5.70597 9.40625 5.59801C9.1875 5.49006 8.93892 5.43608 8.66051 5.43608C8.37358 5.43608 8.12216 5.49574 7.90625 5.61506C7.69034 5.73153 7.52273 5.89773 7.40341 6.11364C7.28693 6.32955 7.22869 6.58665 7.22869 6.88494H5.72443C5.72443 6.33097 5.85085 5.84943 6.10369 5.44034C6.35653 5.03125 6.70455 4.71449 7.14773 4.49006C7.59375 4.26562 8.10511 4.15341 8.68182 4.15341C9.26705 4.15341 9.78125 4.26278 10.2244 4.48153C10.6676 4.70028 11.0114 5 11.2557 5.38068C11.5028 5.76136 11.6264 6.19602 11.6264 6.68466C11.6264 7.01136 11.5639 7.33239 11.4389 7.64773C11.3139 7.96307 11.0938 8.3125 10.7784 8.69602C10.4659 9.07955 10.027 9.54403 9.46165 10.0895L7.95739 11.6193V11.679H11.7585V13H5.77557Z" fill="#797878"/>
<path d="M5.77557 13H5.27557V13.5H5.77557V13ZM5.77557 11.858L5.42555 11.5009L5.27557 11.6479V11.858H5.77557ZM8.8054 8.88778L9.15546 9.24487L9.16067 9.23961L8.8054 8.88778ZM9.96449 7.44744L10.4199 7.65389L9.96449 7.44744ZM9.92188 6.05824L9.49855 6.32433L9.5003 6.32707L9.92188 6.05824ZM9.40625 5.59801L9.18497 6.04638L9.18498 6.04638L9.40625 5.59801ZM7.90625 5.61506L8.14366 6.05513L8.14809 6.05268L7.90625 5.61506ZM7.40341 6.11364L6.96577 5.87178L6.96336 5.87624L7.40341 6.11364ZM7.22869 6.88494V7.38494H7.72869V6.88494H7.22869ZM5.72443 6.88494H5.22443V7.38494H5.72443V6.88494ZM6.10369 5.44034L6.52901 5.70321L6.10369 5.44034ZM7.14773 4.49006L6.92298 4.04341L6.92184 4.04399L7.14773 4.49006ZM10.2244 4.48153L10.4457 4.03318H10.4457L10.2244 4.48153ZM11.2557 5.38068L10.8349 5.65075L10.8363 5.65296L11.2557 5.38068ZM11.4389 7.64773L10.9741 7.46348L11.4389 7.64773ZM10.7784 8.69602L10.3922 8.37847L10.3908 8.38019L10.7784 8.69602ZM9.46165 10.0895L9.11436 9.72954L9.10513 9.73893L9.46165 10.0895ZM7.95739 11.6193L7.60087 11.2688L7.45739 11.4147V11.6193H7.95739ZM7.95739 11.679H7.45739V12.179H7.95739V11.679ZM11.7585 11.679H12.2585V11.179H11.7585V11.679ZM11.7585 13V13.5H12.2585V13H11.7585ZM6.27557 13V11.858H5.27557V13H6.27557ZM6.12559 12.215L9.15542 9.24483L8.45538 8.53073L5.42555 11.5009L6.12559 12.215ZM9.16067 9.23961C9.45628 8.9411 9.70699 8.67155 9.9108 8.43178L9.14886 7.78413C8.9663 7.9989 8.73406 8.24924 8.45012 8.53596L9.16067 9.23961ZM9.9108 8.43178C10.1263 8.17826 10.2996 7.91913 10.4199 7.65389L9.5091 7.241C9.43616 7.40189 9.31973 7.5831 9.14886 7.78413L9.9108 8.43178ZM10.4199 7.65389C10.5468 7.37385 10.6094 7.07595 10.6094 6.76562H9.60938C9.60938 6.93825 9.57533 7.0949 9.5091 7.241L10.4199 7.65389ZM10.6094 6.76562C10.6094 6.41271 10.5285 6.07961 10.3435 5.78941L9.5003 6.32707C9.56524 6.42892 9.60938 6.56741 9.60938 6.76562H10.6094ZM10.3452 5.79215C10.169 5.51191 9.92583 5.29685 9.62752 5.14964L9.18498 6.04638C9.32417 6.11508 9.42471 6.20684 9.49856 6.32432L10.3452 5.79215ZM9.62753 5.14964C9.33082 5.00321 9.00478 4.93608 8.66051 4.93608V5.93608C8.87306 5.93608 9.04418 5.9769 9.18497 6.04638L9.62753 5.14964ZM8.66051 4.93608C8.30288 4.93608 7.96563 5.01097 7.66441 5.17744L8.14809 6.05268C8.27868 5.98051 8.44428 5.93608 8.66051 5.93608V4.93608ZM7.66886 5.17501C7.36809 5.33726 7.1312 5.57248 6.96579 5.87179L7.84103 6.35548C7.91426 6.22297 8.01259 6.1258 8.14364 6.05511L7.66886 5.17501ZM6.96336 5.87624C6.79989 6.17925 6.72869 6.52151 6.72869 6.88494H7.72869C7.72869 6.65179 7.77397 6.47984 7.84346 6.35103L6.96336 5.87624ZM7.22869 6.38494H5.72443V7.38494H7.22869V6.38494ZM6.22443 6.88494C6.22443 6.40944 6.33204 6.02191 6.52901 5.70321L5.67837 5.17747C5.36966 5.67695 5.22443 6.25249 5.22443 6.88494H6.22443ZM6.52901 5.70321C6.73185 5.37503 7.00966 5.12043 7.37362 4.93612L6.92184 4.04399C6.39943 4.30854 5.98122 4.68747 5.67837 5.17747L6.52901 5.70321ZM7.37247 4.9367C7.7387 4.75242 8.17105 4.65341 8.68182 4.65341V3.65341C8.03918 3.65341 7.4488 3.77883 6.92298 4.04341L7.37247 4.9367ZM8.68182 4.65341C9.20432 4.65341 9.64034 4.75082 10.0031 4.92989L10.4457 4.03318C9.92216 3.77475 9.32977 3.65341 8.68182 3.65341V4.65341ZM10.0031 4.92989C10.3726 5.11228 10.6441 5.35351 10.8349 5.65074L11.6765 5.11062C11.3786 4.64649 10.9626 4.28829 10.4457 4.03318L10.0031 4.92989ZM10.8363 5.65296C11.0268 5.94633 11.1264 6.28493 11.1264 6.68466H12.1264C12.1264 6.10711 11.9789 5.5764 11.675 5.10841L10.8363 5.65296ZM11.1264 6.68466C11.1264 6.94587 11.0768 7.2045 10.9741 7.46348L11.9037 7.83198C12.0511 7.46027 12.1264 7.07686 12.1264 6.68466H11.1264ZM10.9741 7.46348C10.8749 7.71383 10.6884 8.01823 10.3922 8.37847L11.1646 9.01358C11.4991 8.60677 11.753 8.21231 11.9037 7.83198L10.9741 7.46348ZM10.3908 8.38019C10.096 8.74201 9.67275 9.19103 9.11448 9.72966L9.80882 10.4493C10.3812 9.89704 10.8358 9.41708 11.166 9.01186L10.3908 8.38019ZM9.10513 9.73893L7.60087 11.2688L8.31391 11.9699L9.81817 10.4401L9.10513 9.73893ZM7.45739 11.6193V11.679H8.45739V11.6193H7.45739ZM7.95739 12.179H11.7585V11.179H7.95739V12.179ZM11.2585 11.679V13H12.2585V11.679H11.2585ZM11.7585 12.5H5.77557V13.5H11.7585V12.5Z" fill="#9D9D9D" mask="url(#path-2-outside-1_3674_4230)"/>
<defs>
<linearGradient id="paint0_linear_3674_4230" x1="1.22727" y1="4.36364" x2="16.5" y2="13.7727" gradientUnits="userSpaceOnUse">
<stop stop-color="#BBBBBB"/>
<stop offset="0.354167" stop-color="#D3D2D2"/>
<stop offset="0.479167" stop-color="#F2F2F2"/>
<stop offset="0.609375" stop-color="#D7D6D6"/>
<stop offset="1" stop-color="#C2C2C2"/>
</linearGradient>
</defs>
</svg>
