<svg width="65" height="64" viewBox="0 0 65 64" fill="none" xmlns="http://www.w3.org/2000/svg">
<path d="M32.4993 2.66699L34.0345 2.70719L35.5655 2.82768L37.0881 3.02813L38.5981 3.308L40.0914 3.6665L41.5639 4.10267L43.0115 4.6153L44.4303 5.20299L45.8164 5.86413L47.166 6.59691L48.4754 7.39932L49.7411 8.26916L50.9594 9.20404L52.1272 10.2014L53.2411 11.2585L54.2983 12.3725L55.2956 13.5403L56.2305 14.7586L57.1004 16.0242L57.9028 17.3337L58.6355 18.6833L59.2967 20.0694L59.8844 21.4882L60.397 22.9358L60.8332 24.4083L61.1917 25.9016L61.4715 27.4116L61.672 28.9342L61.7925 30.4651L61.8327 32.0003L61.7925 33.5355L61.672 35.0665L61.4715 36.5891L61.1917 38.0991L60.8332 39.5924L60.397 41.0648L59.8844 42.5125L59.2967 43.9313L58.6355 45.3174L57.9028 46.667L57.1004 47.9764L56.2305 49.242L55.2956 50.4604L54.2983 51.6282L53.2411 52.7421L52.1272 53.7992L50.9594 54.7966L49.7411 55.7315L48.4754 56.6013L47.166 57.4037L45.8164 58.1365L44.4303 58.7977L43.0115 59.3854L41.5639 59.898L40.0914 60.3342L38.5981 60.6927L37.0881 60.9725L35.5655 61.173L34.0345 61.2935L32.4993 61.3337L30.9642 61.2935L29.4332 61.173L27.9106 60.9725L26.4006 60.6927L24.9073 60.3342L23.4349 59.898L21.9872 59.3854L20.5684 58.7977L19.1823 58.1365L17.8327 57.4037L16.5233 56.6013L15.2576 55.7315L14.0393 54.7966L12.8715 53.7992L11.7575 52.7421L10.7004 51.6282L9.70307 50.4604L8.76818 49.242L7.89835 47.9764L7.09594 46.667L6.36316 45.3174L5.70201 43.9313L5.11432 42.5125L4.60169 41.0648L4.16553 39.5924L3.80702 38.0991L3.52716 36.5891L3.32671 35.0665L3.20622 33.5355L3.16602 32.0003L3.20622 30.4651L3.32671 28.9342L3.52716 27.4116L3.80702 25.9016L4.16553 24.4083L4.60169 22.9358L5.11432 21.4882L5.70201 20.0694L6.36316 18.6833L7.09594 17.3337L7.89835 16.0242L8.76818 14.7586L9.70307 13.5403L10.7004 12.3725L11.7575 11.2585L12.8715 10.2014L14.0393 9.20404L15.2576 8.26916L16.5233 7.39932L17.8327 6.59691L19.1823 5.86413L20.5684 5.20299L21.9872 4.6153L23.4349 4.10267L24.9073 3.6665L26.4006 3.308L27.9106 3.02813L29.4332 2.82768L30.9642 2.70719L32.4993 2.66699Z" fill="#5EDAFF"/>
<path fill-rule="evenodd" clip-rule="evenodd" d="M30.5004 28.0006L30.5059 45.334L34.5059 45.3327L34.5004 27.9994L30.5004 28.0006ZM30.5013 18.6667L30.5013 24.0001L34.5013 24.0001L34.5013 18.6667L30.5013 18.6667Z" fill="#141414"/>
</svg>
