<svg width="65" height="64" viewBox="0 0 65 64" fill="none" xmlns="http://www.w3.org/2000/svg">
<path d="M29.9347 3.33883C31.5225 2.4424 33.4788 2.4424 35.0667 3.33883L56.6013 15.4964C58.1892 16.3928 59.1673 18.0495 59.1673 19.8423V44.1574C59.1673 45.9502 58.1892 47.6069 56.6013 48.5033L35.0667 60.6608C33.4788 61.5573 31.5225 61.5573 29.9347 60.6608L8.39999 48.5033C6.81214 47.6069 5.83398 45.9502 5.83398 44.1574V19.8423C5.83398 18.0495 6.81214 16.3928 8.39999 15.4964L29.9347 3.33883Z" fill="#FFDA80"/>
<path fill-rule="evenodd" clip-rule="evenodd" d="M34.5058 35.9998L34.5003 18.6665L30.5003 18.6678L30.5058 36.0011L34.5058 35.9998ZM34.5 45.3338L34.5 40.0004H30.5V45.3338H34.5Z" fill="#141414"/>
</svg>
